<svg height="512pt" viewBox="0 -21 512.0007 512" width="512pt" xmlns="http://www.w3.org/2000/svg"><path d="m375.960938 366.199219h-258.972657v92.546875c0 .457031-.019531.910156-.035156 1.363281h259.042969c-.015625-.453125-.035156-.90625-.035156-1.363281zm0 0"/><path d="m14.972656 131.085938h273.375c8.269532 0 14.972656-6.703126 14.972656-14.972657v-101.140625c0-8.269531-6.703124-14.972656-14.972656-14.972656h-273.375c-8.269531 0-14.972656 6.703125-14.972656 14.972656v101.140625c0 8.269531 6.703125 14.972657 14.972656 14.972657zm0 0"/><path d="m450.441406 224.988281v47.300781h8.511719v-121.5h38.074219c4.589844 0 8.925781-2.105468 11.765625-5.710937 2.839843-3.609375 3.867187-8.320313 2.789062-12.78125l-22.898437-94.644531c-1.625-6.71875-7.636719-11.453125-14.550782-11.453125h-60.304687c-6.910156 0-12.925781 4.734375-14.550781 11.453125l-22.898438 94.644531c-1.078125 4.460937-.050781 9.171875 2.789063 12.78125 2.839843 3.605469 7.175781 5.710937 11.765625 5.710937h38.074218v35.925782c12.847657 7.914062 21.433594 22.109375 21.433594 38.273437zm0 0"/><path d="m375.960938 336.25v-22.667969c0-22.769531 18.523437-41.292969 41.292968-41.292969h3.238282v-47.300781c0-8.257812-6.714844-14.972656-14.972657-14.972656h-318.09375c-8.253906 0-14.972656 6.714844-14.972656 14.972656v47.300781h3.238281c22.769532 0 41.292969 18.523438 41.292969 41.292969v22.667969zm0 0"/><path d="m87.039062 313.582031c0-6.253906-5.089843-11.347656-11.347656-11.347656h-53.449218c-6.257813 0-11.347657 5.09375-11.347657 11.347656v145.164063c0 6.257812 5.089844 11.347656 11.347657 11.347656h53.449218c6.257813 0 11.347656-5.089844 11.347656-11.347656zm0 0"/><path d="m482.054688 458.746094v-145.164063c0-6.253906-5.09375-11.347656-11.351563-11.347656h-53.449219c-6.257812 0-11.347656 5.09375-11.347656 11.347656v145.164063c0 6.257812 5.089844 11.347656 11.347656 11.347656h53.449219c6.257813 0 11.351563-5.089844 11.351563-11.347656zm0 0"/></svg>